<mxfile host="app.diagrams.net" modified="2023-11-06T08:00:01.555Z" agent="Mozilla/5.0 (Macintosh; Intel Mac OS X 10_15_7) AppleWebKit/537.36 (KHTML, like Gecko) Chrome/118.0.0.0 Safari/537.36" version="22.0.8" etag="oZ4JZvbg6uNDxYgeRUCL" type="device">
  <diagram id="EalaRQUHVqObTK0fdR-0" name="Trang-1">
    <mxGraphModel dx="1085" dy="718" grid="1" gridSize="10" guides="1" tooltips="1" connect="1" arrows="1" fold="1" page="1" pageScale="1" pageWidth="827" pageHeight="1169" math="0" shadow="0">
      <root>
        <mxCell id="0" />
        <mxCell id="1" parent="0" />
        <mxCell id="XjdHfcOPX3L7a6FW-sjz-13" style="edgeStyle=orthogonalEdgeStyle;rounded=0;orthogonalLoop=1;jettySize=auto;html=1;entryX=0.5;entryY=0;entryDx=0;entryDy=0;" edge="1" parent="1" source="XjdHfcOPX3L7a6FW-sjz-2" target="XjdHfcOPX3L7a6FW-sjz-3">
          <mxGeometry relative="1" as="geometry" />
        </mxCell>
        <mxCell id="XjdHfcOPX3L7a6FW-sjz-2" value="Start" style="ellipse;whiteSpace=wrap;html=1;" vertex="1" parent="1">
          <mxGeometry x="280" y="10" width="120" height="80" as="geometry" />
        </mxCell>
        <mxCell id="XjdHfcOPX3L7a6FW-sjz-12" style="edgeStyle=orthogonalEdgeStyle;rounded=0;orthogonalLoop=1;jettySize=auto;html=1;" edge="1" parent="1" source="XjdHfcOPX3L7a6FW-sjz-3" target="XjdHfcOPX3L7a6FW-sjz-4">
          <mxGeometry relative="1" as="geometry" />
        </mxCell>
        <mxCell id="XjdHfcOPX3L7a6FW-sjz-3" value="a,b,c,d,e,f" style="rounded=0;whiteSpace=wrap;html=1;" vertex="1" parent="1">
          <mxGeometry x="280" y="140" width="120" height="60" as="geometry" />
        </mxCell>
        <mxCell id="XjdHfcOPX3L7a6FW-sjz-29" style="edgeStyle=orthogonalEdgeStyle;rounded=0;orthogonalLoop=1;jettySize=auto;html=1;exitX=0.5;exitY=1;exitDx=0;exitDy=0;entryX=0.5;entryY=0;entryDx=0;entryDy=0;" edge="1" parent="1" source="XjdHfcOPX3L7a6FW-sjz-4" target="XjdHfcOPX3L7a6FW-sjz-5">
          <mxGeometry relative="1" as="geometry" />
        </mxCell>
        <mxCell id="XjdHfcOPX3L7a6FW-sjz-4" value="a,b" style="shape=parallelogram;perimeter=parallelogramPerimeter;whiteSpace=wrap;html=1;fixedSize=1;" vertex="1" parent="1">
          <mxGeometry x="280" y="260" width="120" height="60" as="geometry" />
        </mxCell>
        <mxCell id="XjdHfcOPX3L7a6FW-sjz-9" style="edgeStyle=orthogonalEdgeStyle;rounded=0;orthogonalLoop=1;jettySize=auto;html=1;entryX=0.5;entryY=0;entryDx=0;entryDy=0;" edge="1" parent="1" source="XjdHfcOPX3L7a6FW-sjz-5" target="XjdHfcOPX3L7a6FW-sjz-6">
          <mxGeometry relative="1" as="geometry" />
        </mxCell>
        <mxCell id="XjdHfcOPX3L7a6FW-sjz-14" style="edgeStyle=orthogonalEdgeStyle;rounded=0;orthogonalLoop=1;jettySize=auto;html=1;" edge="1" parent="1" source="XjdHfcOPX3L7a6FW-sjz-5">
          <mxGeometry relative="1" as="geometry">
            <mxPoint x="450" y="390" as="targetPoint" />
          </mxGeometry>
        </mxCell>
        <mxCell id="XjdHfcOPX3L7a6FW-sjz-5" value="c = a + b" style="rounded=0;whiteSpace=wrap;html=1;" vertex="1" parent="1">
          <mxGeometry x="280" y="360" width="120" height="60" as="geometry" />
        </mxCell>
        <mxCell id="XjdHfcOPX3L7a6FW-sjz-10" style="edgeStyle=orthogonalEdgeStyle;rounded=0;orthogonalLoop=1;jettySize=auto;html=1;entryX=0.5;entryY=0;entryDx=0;entryDy=0;" edge="1" parent="1" source="XjdHfcOPX3L7a6FW-sjz-6" target="XjdHfcOPX3L7a6FW-sjz-7">
          <mxGeometry relative="1" as="geometry" />
        </mxCell>
        <mxCell id="XjdHfcOPX3L7a6FW-sjz-15" style="edgeStyle=orthogonalEdgeStyle;rounded=0;orthogonalLoop=1;jettySize=auto;html=1;" edge="1" parent="1" source="XjdHfcOPX3L7a6FW-sjz-6">
          <mxGeometry relative="1" as="geometry">
            <mxPoint x="450" y="490" as="targetPoint" />
          </mxGeometry>
        </mxCell>
        <mxCell id="XjdHfcOPX3L7a6FW-sjz-6" value="d = a - b" style="rounded=0;whiteSpace=wrap;html=1;" vertex="1" parent="1">
          <mxGeometry x="280" y="460" width="120" height="60" as="geometry" />
        </mxCell>
        <mxCell id="XjdHfcOPX3L7a6FW-sjz-11" style="edgeStyle=orthogonalEdgeStyle;rounded=0;orthogonalLoop=1;jettySize=auto;html=1;entryX=0.5;entryY=0;entryDx=0;entryDy=0;" edge="1" parent="1" source="XjdHfcOPX3L7a6FW-sjz-7" target="XjdHfcOPX3L7a6FW-sjz-8">
          <mxGeometry relative="1" as="geometry" />
        </mxCell>
        <mxCell id="XjdHfcOPX3L7a6FW-sjz-16" style="edgeStyle=orthogonalEdgeStyle;rounded=0;orthogonalLoop=1;jettySize=auto;html=1;" edge="1" parent="1" source="XjdHfcOPX3L7a6FW-sjz-7">
          <mxGeometry relative="1" as="geometry">
            <mxPoint x="450" y="580" as="targetPoint" />
          </mxGeometry>
        </mxCell>
        <mxCell id="XjdHfcOPX3L7a6FW-sjz-7" value="e = a * b" style="rounded=0;whiteSpace=wrap;html=1;" vertex="1" parent="1">
          <mxGeometry x="280" y="550" width="120" height="60" as="geometry" />
        </mxCell>
        <mxCell id="XjdHfcOPX3L7a6FW-sjz-17" style="edgeStyle=orthogonalEdgeStyle;rounded=0;orthogonalLoop=1;jettySize=auto;html=1;exitX=1;exitY=0.5;exitDx=0;exitDy=0;" edge="1" parent="1" source="XjdHfcOPX3L7a6FW-sjz-8">
          <mxGeometry relative="1" as="geometry">
            <mxPoint x="450" y="680" as="targetPoint" />
          </mxGeometry>
        </mxCell>
        <mxCell id="XjdHfcOPX3L7a6FW-sjz-8" value="f = a / b" style="rounded=0;whiteSpace=wrap;html=1;" vertex="1" parent="1">
          <mxGeometry x="280" y="650" width="120" height="60" as="geometry" />
        </mxCell>
        <mxCell id="XjdHfcOPX3L7a6FW-sjz-18" value="c" style="shape=parallelogram;perimeter=parallelogramPerimeter;whiteSpace=wrap;html=1;fixedSize=1;" vertex="1" parent="1">
          <mxGeometry x="440" y="360" width="120" height="60" as="geometry" />
        </mxCell>
        <mxCell id="XjdHfcOPX3L7a6FW-sjz-19" value="d" style="shape=parallelogram;perimeter=parallelogramPerimeter;whiteSpace=wrap;html=1;fixedSize=1;" vertex="1" parent="1">
          <mxGeometry x="440" y="460" width="120" height="60" as="geometry" />
        </mxCell>
        <mxCell id="XjdHfcOPX3L7a6FW-sjz-20" value="e" style="shape=parallelogram;perimeter=parallelogramPerimeter;whiteSpace=wrap;html=1;fixedSize=1;" vertex="1" parent="1">
          <mxGeometry x="440" y="550" width="120" height="60" as="geometry" />
        </mxCell>
        <mxCell id="XjdHfcOPX3L7a6FW-sjz-21" value="f" style="shape=parallelogram;perimeter=parallelogramPerimeter;whiteSpace=wrap;html=1;fixedSize=1;" vertex="1" parent="1">
          <mxGeometry x="440" y="650" width="120" height="60" as="geometry" />
        </mxCell>
        <mxCell id="XjdHfcOPX3L7a6FW-sjz-22" value="" style="endArrow=none;html=1;rounded=0;" edge="1" parent="1">
          <mxGeometry width="50" height="50" relative="1" as="geometry">
            <mxPoint x="550" y="390" as="sourcePoint" />
            <mxPoint x="630" y="390" as="targetPoint" />
          </mxGeometry>
        </mxCell>
        <mxCell id="XjdHfcOPX3L7a6FW-sjz-23" value="" style="endArrow=none;html=1;rounded=0;" edge="1" parent="1">
          <mxGeometry width="50" height="50" relative="1" as="geometry">
            <mxPoint x="550" y="489.55" as="sourcePoint" />
            <mxPoint x="630" y="489.55" as="targetPoint" />
          </mxGeometry>
        </mxCell>
        <mxCell id="XjdHfcOPX3L7a6FW-sjz-24" value="" style="endArrow=none;html=1;rounded=0;" edge="1" parent="1">
          <mxGeometry width="50" height="50" relative="1" as="geometry">
            <mxPoint x="550" y="585" as="sourcePoint" />
            <mxPoint x="630" y="585" as="targetPoint" />
          </mxGeometry>
        </mxCell>
        <mxCell id="XjdHfcOPX3L7a6FW-sjz-25" value="" style="endArrow=none;html=1;rounded=0;" edge="1" parent="1">
          <mxGeometry width="50" height="50" relative="1" as="geometry">
            <mxPoint x="550" y="679.55" as="sourcePoint" />
            <mxPoint x="630" y="679.55" as="targetPoint" />
          </mxGeometry>
        </mxCell>
        <mxCell id="XjdHfcOPX3L7a6FW-sjz-26" value="" style="endArrow=none;html=1;rounded=0;" edge="1" parent="1">
          <mxGeometry width="50" height="50" relative="1" as="geometry">
            <mxPoint x="630" y="680" as="sourcePoint" />
            <mxPoint x="630" y="390" as="targetPoint" />
            <Array as="points" />
          </mxGeometry>
        </mxCell>
        <mxCell id="XjdHfcOPX3L7a6FW-sjz-27" value="" style="endArrow=classic;html=1;rounded=0;" edge="1" parent="1">
          <mxGeometry width="50" height="50" relative="1" as="geometry">
            <mxPoint x="630" y="550" as="sourcePoint" />
            <mxPoint x="680" y="550" as="targetPoint" />
          </mxGeometry>
        </mxCell>
        <mxCell id="XjdHfcOPX3L7a6FW-sjz-28" value="End" style="ellipse;whiteSpace=wrap;html=1;" vertex="1" parent="1">
          <mxGeometry x="680" y="510" width="120" height="80" as="geometry" />
        </mxCell>
      </root>
    </mxGraphModel>
  </diagram>
</mxfile>
